<svg width="623" height="151" viewBox="0 0 623 151" fill="none" xmlns="http://www.w3.org/2000/svg">
<path d="M0.0259871 148.513V8.34842H61.8987C71.51 8.34842 79.6529 9.75007 86.3274 12.5534C93.0019 15.2232 98.0078 19.1611 101.345 24.3673C104.816 29.4399 106.551 35.5804 106.551 42.7889C106.551 50.7983 104.549 57.5396 100.544 63.0127C96.6729 68.4858 90.9996 72.1568 83.5241 74.0256L83.1237 70.2211C89.3977 71.5561 94.8041 73.8921 99.3427 77.2294C104.015 80.5666 107.619 84.7048 110.155 89.644C112.692 94.4496 113.96 99.9227 113.96 106.063C113.96 113.138 112.759 119.346 110.356 124.685C107.953 129.891 104.482 134.296 99.9434 137.901C95.4048 141.505 90.0652 144.175 83.9246 145.91C77.9175 147.645 71.243 148.513 63.9011 148.513H0.0259871ZM32.0636 120.08H62.6997C66.4374 120.08 69.5744 119.479 72.1107 118.278C74.7805 117.076 76.8496 115.341 78.318 113.072C79.7864 110.669 80.5206 107.799 80.5206 104.461C80.5206 101.391 79.7197 98.7881 78.1178 96.6522C76.6494 94.5164 74.5135 92.9145 71.7102 91.8466C68.907 90.6452 65.5697 90.0445 61.6985 90.0445H32.0636V120.08ZM32.0636 64.6146H57.0931C60.5638 64.6146 63.5006 64.0806 65.9034 63.0127C68.4397 61.8113 70.3086 60.2094 71.51 58.207C72.8449 56.0712 73.5124 53.5349 73.5124 50.5981C73.5124 46.3264 72.044 42.9891 69.1072 40.5863C66.1704 38.05 61.7652 36.7818 55.8917 36.7818H32.0636V64.6146ZM161.25 150.716C153.374 150.716 146.633 149.047 141.026 145.71C135.553 142.239 131.281 137.3 128.211 130.892C125.274 124.485 123.806 116.809 123.806 107.865V42.1882H156.044V103.46C156.044 107.732 156.711 111.403 158.046 114.473C159.381 117.543 161.383 119.946 164.053 121.682C166.723 123.284 169.927 124.084 173.664 124.084C176.468 124.084 179.004 123.617 181.273 122.683C183.676 121.748 185.679 120.48 187.28 118.878C189.016 117.143 190.351 115.207 191.285 113.072C192.22 110.802 192.687 108.333 192.687 105.663V42.1882H224.925V148.513H194.689L193.288 126.688L199.295 124.285C197.693 129.357 195.023 133.896 191.285 137.901C187.547 141.772 183.076 144.909 177.869 147.312C172.663 149.581 167.123 150.716 161.25 150.716ZM237.26 148.513V130.092L293.726 57.6063V68.2188H237.26V42.1882H325.363V61.4108L271.9 131.693L271.099 122.483H327.165V148.513H237.26ZM348.351 148.513V15.3567H380.389V148.513H348.351ZM329.529 70.2211V42.1882H401.013V70.2211H329.529ZM456.99 150.516C445.243 150.516 435.031 148.179 426.354 143.507C417.677 138.702 410.936 132.227 406.13 124.084C401.324 115.808 398.921 106.397 398.921 95.8513C398.921 87.7084 400.256 80.2329 402.926 73.4249C405.596 66.6169 409.334 60.7433 414.139 55.8042C418.945 50.7316 424.618 46.8604 431.159 44.1906C437.834 41.3873 445.109 39.9856 452.985 39.9856C460.46 39.9856 467.268 41.3205 473.409 43.9903C479.683 46.6601 485.089 50.3978 489.628 55.2035C494.167 60.0091 497.637 65.6825 500.04 72.2235C502.443 78.7645 503.511 85.9063 503.244 93.6487L503.044 102.259H418.344L413.739 84.2376H477.013L473.609 88.0421V84.0374C473.342 80.7001 472.274 77.7634 470.405 75.227C468.67 72.5572 466.334 70.4881 463.397 69.0197C460.46 67.5513 457.123 66.8171 453.385 66.8171C448.179 66.8171 443.707 67.8851 439.97 70.0209C436.365 72.0233 433.629 75.0268 431.76 79.0315C429.891 82.9027 428.957 87.7084 428.957 93.4485C428.957 99.322 430.158 104.461 432.561 108.867C435.097 113.138 438.702 116.476 443.374 118.878C448.179 121.281 453.853 122.483 460.394 122.483C464.932 122.483 468.937 121.815 472.408 120.48C476.012 119.145 479.883 116.876 484.021 113.672L499.039 134.897C494.901 138.501 490.496 141.438 485.824 143.708C481.151 145.977 476.346 147.645 471.407 148.713C466.601 149.915 461.795 150.516 456.99 150.516ZM542.478 117.276L530.664 93.2482L580.322 42.1882H622.572L542.478 117.276ZM511.641 148.513V0.33901H543.679V148.513H511.641ZM583.726 148.513L546.282 100.056L568.909 82.4355L621.571 148.513H583.726Z" fill="#EFEFDC"/>
</svg>
