<svg width="267" height="267" viewBox="0 0 267 267" fill="none" xmlns="http://www.w3.org/2000/svg">
<circle cx="133.5" cy="133.5" r="133.5" fill="#271624"/>
<path d="M43.2346 155V113.361H61.615C64.4702 113.361 66.8893 113.778 68.872 114.611C70.8548 115.404 72.3419 116.574 73.3333 118.12C74.3644 119.627 74.8799 121.451 74.8799 123.593C74.8799 125.972 74.2851 127.975 73.0954 129.6C71.9454 131.226 70.26 132.317 68.0393 132.872L67.9203 131.742C69.7841 132.138 71.3902 132.832 72.7385 133.824C74.1264 134.815 75.1971 136.045 75.9506 137.512C76.7041 138.939 77.0808 140.565 77.0808 142.389C77.0808 144.491 76.7239 146.335 76.0101 147.921C75.2963 149.468 74.2652 150.777 72.9169 151.847C71.5686 152.918 69.9824 153.711 68.1582 154.227C66.3737 154.742 64.3909 155 62.2099 155H43.2346ZM52.752 146.553H61.853C62.9633 146.553 63.8952 146.375 64.6487 146.018C65.4418 145.661 66.0565 145.146 66.4927 144.471C66.9289 143.758 67.147 142.905 67.147 141.914C67.147 141.002 66.9091 140.228 66.4332 139.594C65.997 138.959 65.3625 138.483 64.5297 138.166C63.697 137.809 62.7056 137.631 61.5555 137.631H52.752V146.553ZM52.752 130.076H60.1874C61.2185 130.076 62.0909 129.918 62.8047 129.6C63.5582 129.244 64.1133 128.768 64.4702 128.173C64.8668 127.538 65.0651 126.785 65.0651 125.912C65.0651 124.643 64.6289 123.652 63.7564 122.938C62.884 122.185 61.5754 121.808 59.8305 121.808H52.752V130.076ZM91.4266 155.654C89.0869 155.654 87.0843 155.159 85.4187 154.167C83.7928 153.136 82.5239 151.669 81.6118 149.765C80.7393 147.862 80.3031 145.582 80.3031 142.925V123.414H89.88V141.616C89.88 142.885 90.0783 143.976 90.4748 144.888C90.8714 145.8 91.4662 146.514 92.2594 147.029C93.0525 147.505 94.0042 147.743 95.1146 147.743C95.9473 147.743 96.7008 147.604 97.375 147.327C98.0888 147.049 98.6836 146.672 99.1595 146.196C99.675 145.681 100.072 145.106 100.349 144.471C100.627 143.797 100.766 143.064 100.766 142.27V123.414H110.342V155H101.36L100.944 148.516L102.728 147.802C102.253 149.309 101.46 150.658 100.349 151.847C99.2388 152.997 97.9103 153.929 96.3637 154.643C94.8172 155.317 93.1714 155.654 91.4266 155.654ZM114.304 155V149.527L131.079 127.994V131.147H114.304V123.414H140.477V129.125L124.595 150.003L124.357 147.267H141.012V155H114.304ZM147.603 155V115.443H157.121V155H147.603ZM142.012 131.742V123.414H163.248V131.742H142.012ZM180.174 155.595C176.684 155.595 173.651 154.901 171.073 153.513C168.495 152.085 166.493 150.162 165.065 147.743C163.637 145.284 162.924 142.489 162.924 139.356C162.924 136.937 163.32 134.716 164.113 132.694C164.906 130.671 166.017 128.926 167.444 127.459C168.872 125.952 170.557 124.802 172.501 124.009C174.483 123.176 176.645 122.76 178.984 122.76C181.205 122.76 183.227 123.156 185.052 123.95C186.915 124.743 188.521 125.853 189.87 127.281C191.218 128.708 192.249 130.394 192.963 132.337C193.677 134.28 193.994 136.401 193.915 138.701L193.855 141.259H168.694L167.325 135.906H186.122L185.111 137.036V135.846C185.032 134.855 184.715 133.982 184.159 133.229C183.644 132.436 182.95 131.821 182.077 131.385C181.205 130.949 180.214 130.731 179.103 130.731C177.557 130.731 176.228 131.048 175.118 131.682C174.047 132.277 173.234 133.169 172.679 134.359C172.124 135.509 171.846 136.937 171.846 138.642C171.846 140.387 172.203 141.914 172.917 143.222C173.67 144.491 174.741 145.483 176.129 146.196C177.557 146.91 179.242 147.267 181.185 147.267C182.533 147.267 183.723 147.069 184.754 146.672C185.825 146.276 186.975 145.602 188.204 144.65L192.666 150.955C191.436 152.026 190.128 152.898 188.74 153.572C187.352 154.247 185.924 154.742 184.457 155.059C183.029 155.416 181.602 155.595 180.174 155.595ZM205.867 145.721L202.358 138.582L217.11 123.414H229.661L205.867 145.721ZM196.707 155V110.982H206.224V155H196.707ZM218.121 155L206.997 140.605L213.719 135.37L229.363 155H218.121Z" fill="#EFEFDC"/>
</svg>
