<svg width="839" height="297" viewBox="0 0 839 297" fill="none" xmlns="http://www.w3.org/2000/svg">
<path d="M399.36 42.7505C363.128 54.341 340.49 94.071 354.742 129.341C369.729 166.428 403.193 167.88 438.59 149.25C456.844 139.642 482.74 136.444 488.718 116.702C501.845 73.3487 442.503 28.9492 399.36 42.7505Z" stroke="#EFEFDC" stroke-width="10"/>
<path d="M423.613 88.4085C415.251 88.1025 393.969 90.5088 375.738 102.582" stroke="#EFEFDC" stroke-width="8.02984" stroke-linecap="round"/>
<path d="M438.476 82.9583C441.609 78.4368 451.21 69.5176 464.55 70.0123" stroke="#EFEFDC" stroke-width="8.02984" stroke-linecap="round"/>
<path d="M6.7 268V200H20.2V227.6H50.3V200H63.7V268H50.3V238.6H20.2V268H6.7ZM184.608 268L179.408 253.9H150.408L145.208 268H131.708L157.308 200H173.208L198.808 268H184.608ZM162.908 220.2L154.308 243.5H175.508L166.908 220.2L164.908 213.2L162.908 220.2ZM266.739 268V200H280.239V232.3L307.539 200H323.339L294.539 233.3L324.639 268H307.539L280.239 236.5V268H266.739ZM392.462 268V200H405.962V232.3L433.262 200H449.062L420.262 233.3L450.362 268H433.262L405.962 236.5V268H392.462ZM565.584 268L560.384 253.9H531.384L526.184 268H512.684L538.284 200H554.184L579.784 268H565.584ZM543.884 220.2L535.284 243.5H556.484L547.884 220.2L545.884 213.2L543.884 220.2ZM647.716 268V200H673.016C689.316 200 699.416 208.4 699.416 222.3C699.416 236.6 689.216 244.8 673.216 244.8H661.216V268H647.716ZM672.816 210.7H661.216V234.1H672.516C681.116 234.1 685.616 229.5 685.616 222.4C685.616 215.3 681.016 210.7 672.816 210.7ZM800.532 269.5C779.932 269.5 767.232 256 767.232 234.1C767.232 212.2 779.932 198.5 800.532 198.5C821.132 198.5 833.932 212.2 833.932 234.1C833.932 256 821.132 269.5 800.532 269.5ZM800.532 258.3C812.832 258.3 820.132 249.2 820.132 234.1C820.132 219 812.832 209.7 800.532 209.7C788.232 209.7 781.032 218.9 781.032 234.1C781.032 249.2 788.232 258.3 800.532 258.3Z" fill="#EFEFDC"/>
<ellipse cx="425.5" cy="164.5" rx="69.5" ry="5.5" fill="#EFEFDC"/>
</svg>
