<svg width="479" height="571" viewBox="0 0 479 571" fill="none" xmlns="http://www.w3.org/2000/svg">
<path fill-rule="evenodd" clip-rule="evenodd" d="M73.4403 227.617C82.1692 189.388 101.657 153.717 133.093 124.756C227.624 29.7107 403.111 79.3898 403.514 221.413C407.073 237.972 408.604 255.016 407.615 271.942C407.208 279.163 404.168 289.262 408.42 295.723C417.989 307.796 423.566 316.707 420.48 332.9C417.907 347.037 408.386 357.117 395.467 362.542C387.711 364.839 380.375 369.761 377.558 377.193C360.519 409.021 347.921 435.482 320.82 457.304C313.827 462.922 241.905 496.871 218.115 497.071C148.466 497.658 60.4708 473.168 58.3588 395.383C57.9629 378.298 60.8162 360.986 62.5544 344.018C66.8073 305.292 64.8544 265.218 73.4403 227.617Z" fill="white"/>
<path fill-rule="evenodd" clip-rule="evenodd" d="M74.8466 208.521C74.8207 208.049 74.1438 207.949 74.0167 208.416C71.5052 217.622 70.117 226.991 68.1706 236.336C66.2963 245.337 64.5313 254.363 63.0756 263.44C60.3287 280.57 58.0371 297.741 55.9162 314.955L55.3894 319.259C51.7063 349.548 45.4679 381.123 51.411 411.508C56.4825 437.435 72.9291 458.228 94.0266 473.396C114.003 487.757 138.154 496.878 162.1 501.977C187.801 507.452 218.222 508.894 238.936 489.907C247.228 482.304 235.712 467.454 226.704 474.328C205.553 490.466 178.436 485.989 154.365 479.842L153.636 479.655C132.509 474.218 111.217 465.886 94.3607 451.669C75.7247 435.95 66.3905 413.996 65.13 389.842C64.4227 376.271 65.5742 362.701 66.8258 349.193L66.9652 347.693C68.4022 332.246 69.9162 316.806 71.3032 301.354C72.5687 287.263 73.6437 273.092 74.1557 258.945L74.3901 251.81C74.8824 237.425 75.5853 222.827 74.8466 208.521ZM323.474 86.931C288.686 69.1902 248.825 63.0717 210.329 69.448C173.321 75.5778 139.473 94.9855 114.284 122.618C101.986 136.109 91.1012 151.686 84.2039 168.662C80.7777 177.095 78.1137 185.884 76.7315 194.9C76.0205 199.536 75.3239 204.338 75.2225 209.032C75.129 213.378 76.4393 217.442 76.3255 221.86C76.3083 222.551 77.3684 222.675 77.5238 222.012C78.6863 217.077 81.5559 213.328 83.3364 208.635C84.6673 205.131 86.1815 201.708 87.7238 198.295L89.0489 195.371C92.8955 186.871 97.51 178.713 102.075 170.584C111.266 154.212 123.111 139.304 137.021 126.691C161.445 104.547 192.895 90.1205 225.824 87.2932C260.001 84.3573 294.759 92.2169 324.118 110.028C353.475 127.839 375.794 155.722 387.532 187.943C393.454 204.203 396.792 221.168 397.681 238.439C398.13 247.182 397.853 256.004 397.314 264.738L397.044 268.902C396.73 273.897 396.527 278.872 397.314 283.736C392.032 282.138 386.505 281.503 380.97 282.363C372.745 283.64 367.854 287.057 364.222 294.446C364.032 294.832 364.422 295.213 364.804 295.018C369.572 292.588 377.331 293.781 382.413 294.991C387.702 296.251 392.475 298.478 396.986 301.507C405.33 307.106 411.908 315.835 413.588 325.901C415.213 335.623 411.3 345.515 404.645 352.549C401.219 356.172 397.114 359.314 392.506 361.288C386.913 363.687 381.356 363.66 376.423 367.583C373.373 370.008 374.15 374.106 376.254 376.753C365.874 388.329 356.69 400.974 346.311 412.595C341.5 417.982 336.728 423.374 332.122 428.931L330.403 431.023C325.804 436.669 318.462 442.654 316.399 449.723C315.115 454.121 319.861 459.82 324.593 457.781C331.851 454.652 336.984 446.628 341.855 440.466L342.172 440.067C347.281 433.681 351.807 426.946 355.938 419.894L357.296 417.571C364.765 404.766 372.165 391.487 376.878 377.449C377.2 377.774 377.54 378.07 377.899 378.32C384.9 383.21 394.986 379.32 401.909 376.048C408.446 372.96 414.423 368.345 419.065 362.805C429.162 350.757 433.733 335.226 430.196 319.731C427.201 306.604 417.978 293.89 405.973 287.338C411.435 280.942 413.647 272.363 415.096 263.982C416.946 253.283 417.241 242.332 416.623 231.504C415.39 209.936 409.658 188.715 400.908 169.03C385.253 133.807 357.853 104.465 323.474 86.931ZM398.359 322.22C391.078 320.919 384.301 320.647 377.315 323.782C369.737 327.185 364.431 332.742 359.509 339.241C353.909 346.635 368.487 354.537 372.064 344.755L372.169 344.453C373.124 341.558 374.856 338.752 377.057 336.165C377.733 337.181 378.632 338.073 379.684 338.58C380.959 339.193 382.893 338.745 383.184 337.121C383.507 335.319 383.115 333.142 382.064 331.628L381.92 331.422C386.93 327.32 392.972 324.304 398.368 323.305C398.908 323.204 398.894 322.315 398.359 322.22Z" fill="#271624"/>
<path fill-rule="evenodd" clip-rule="evenodd" d="M99.6118 352.18C87.9052 353.11 76.8868 360.471 66.8574 366.173C57.2084 372.049 50.103 380.693 44.4498 390.312L44.0832 390.941C43.7511 391.443 44.3554 391.998 44.8467 391.804L44.9231 391.767C54.3996 386.912 64.4087 382.958 73.7085 377.67C82.7846 371.952 93.972 369.93 103.121 364.722C108.343 360.783 106.695 352.421 99.6118 352.18ZM130.127 357.607C129.722 360.282 130.837 364.514 134.355 365.723C140.537 367.845 146.159 368.97 152.364 370.614L160.407 372.794C175.858 377.006 191.543 381.535 205.247 388.26L205.673 388.069C215.534 381.783 160.554 356.371 141.611 352.409C138.13 351.68 130.738 353.569 130.127 357.607Z" fill="#271624"/>
<path d="M335.835 366.873C338.954 357.011 326.949 349.358 319.453 356.485C310.395 365.099 301.072 374.089 294.672 380.583C286.347 389.031 264.012 398.67 243.735 406.204C233.935 409.845 234.857 424.975 245.12 426.972L295.626 436.801C299.418 437.538 303.287 436.035 305.47 432.848C311.82 423.581 324.714 403.572 329.519 387.364C331.33 381.254 333.561 374.063 335.835 366.873Z" fill="#271624"/>
<ellipse cx="20.2708" cy="32.4991" rx="20.2708" ry="32.4991" transform="matrix(-0.421181 0.906977 0.906977 0.421181 91.6621 436.927)" fill="#271624"/>
<path fill-rule="evenodd" clip-rule="evenodd" d="M168.698 381.117C168.57 380.998 168.367 380.957 168.213 381.054C165.57 382.725 165.258 388.343 165.228 391.589C164.135 391.873 163.055 392.197 162.034 392.423C159.866 392.902 157.686 393.321 155.51 393.762L153.879 394.098C148.428 395.247 142.876 396.097 137.321 396.523C131.93 396.935 126.383 397.086 121.007 396.392C118.699 396.093 116.404 395.595 114.173 394.93C111.537 394.144 109.437 392.84 106.984 391.698C100.845 388.838 95.6992 397.218 101.608 400.896C106.68 404.051 113.6 405.189 119.455 405.677C125.44 406.176 131.401 405.628 137.313 404.682C143.705 403.658 149.965 402.085 156.027 399.805C158.591 398.841 161.071 397.672 163.493 396.394L164.152 396.043C164.555 395.827 164.974 395.608 165.396 395.386C165.85 399.432 167.157 403.341 168.737 407.099L168.774 407.033C169.638 409.997 172.76 411.831 175.866 410.521C179.511 408.986 179.788 404.954 177.667 402.093L177.566 401.959C175.072 398.751 173.509 394.771 172.151 390.977C171.455 389.032 170.81 387.04 170.25 385.05C169.845 383.611 169.831 382.163 168.698 381.117Z" fill="#271624"/>
<path d="M47.838 281.318C51.3764 292.012 59.0936 300.247 69.8438 303.867C80.4978 307.456 92.3471 306.148 103.237 304.208C105.62 303.783 105 304 105 304C105 304 121.322 302.904 122.789 299.418C123.26 298.301 123.697 297.179 124.116 296.054C124.176 295.892 124.236 295.729 124.297 295.567C124.426 295.459 124.554 295.349 124.682 295.239C127.553 292.755 129.96 289.695 131.663 285.905C136.273 275.64 135.522 262.897 132.725 252.237C130.483 243.693 125.535 235.79 118.998 230.421C117.856 228.543 117.103 227.404 116.179 226.445C112.422 222.536 107.18 219.9 102.064 218.296C90.6374 214.713 78.193 217.284 68.507 224.106C59.5636 230.405 52.5623 239.852 48.779 250.359C45.1961 260.309 44.4969 271.223 47.838 281.318Z" fill="#271624"/>
<path fill-rule="evenodd" clip-rule="evenodd" d="M203.478 216.331C189.889 216.215 176.063 220.227 165.036 228.256C154.486 235.939 146.204 247.282 146.214 260.793C146.224 273.948 153.256 286.882 161.055 297.067C169.809 308.501 181.249 314.014 195.633 314.141C203.11 314.208 210.642 313.546 218.065 312.637L222.047 312.134C227.532 311.427 233.073 310.59 238.271 308.705C263.015 299.73 263.781 267.342 254.617 246.639C247.541 230.655 229.632 215.067 211.774 216.938C209.083 216.561 206.32 216.356 203.478 216.331Z" fill="#271624"/>
<path fill-rule="evenodd" clip-rule="evenodd" d="M180.527 231.562C197.544 223.924 218.22 226.211 234.727 234.362C241.266 241.496 246.045 250.487 247.979 258.741C250.044 267.552 249.742 277.043 246.637 285.583C242.846 296.008 233.511 298.59 223.441 300.192L219.531 300.806L217.891 301.055C207.996 302.531 197.179 303.678 187.67 301.831C177.073 299.77 170.342 291.209 165.045 282.432L164.798 282.02C159.297 272.823 154.692 261.638 159.306 251.1C163.229 242.143 171.798 235.48 180.527 231.562Z" fill="white"/>
<path d="M80.0867 234.224C85.9267 230.988 92.5877 230.4 98.8937 232.566C101.607 233.497 103.951 235.008 106.224 236.701L107.131 237.387C109.926 239.532 112.537 240.619 114.634 243.517L114.905 243.906C115.963 245.486 117.814 246.118 119.5 245.908C121.465 251.325 122.276 257.183 122.292 262.95L122.29 263.714L122.28 264.493C122.154 271.31 120.965 279.649 115.602 284.218C110.71 288.384 103.302 289.384 96.6888 289.964L91.5921 290.389L90.2375 290.492C83.2669 290.977 75.6287 290.811 69.7867 286.685C64.6987 283.091 62.2987 276.991 61.6767 270.968C60.2057 256.739 67.4076 241.249 80.0867 234.224Z" fill="white"/>
<path fill-rule="evenodd" clip-rule="evenodd" d="M207.205 235.538C197.834 230.754 186.577 231.953 178.639 237.949C179.344 238.087 180.038 238.263 180.73 238.61C182.531 239.513 183.649 241.321 184.075 243.245C184.555 245.42 183.428 247.479 181.281 248.165C179.413 248.761 177.198 249.034 175.463 247.899C174.554 247.305 173.919 246.522 173.502 245.536L173.443 245.391L173.369 245.285L173.341 245.235C173.335 245.216 173.368 245.252 173.42 245.333C173.367 245.21 173.318 245.087 173.269 244.962C173.196 244.813 173.126 244.663 173.069 244.508C172.968 244.421 172.876 244.324 172.783 244.227C171.341 246.446 170.209 248.952 169.49 251.74C164.876 269.635 183.796 288.206 200.699 290.064C207.087 290.766 212.912 289.245 217.746 286.247C217.702 286.188 217.653 286.135 217.613 286.073C215.671 286.422 213.353 285.553 212.648 283.387C210.849 277.862 212.694 271.399 218.714 269.594C222.588 268.432 226.552 269.716 229.321 272.364C231.415 267.239 232.164 261.469 231.173 255.69C229.775 247.537 224.857 240.19 217.203 236.798C213.476 235.145 210.264 234.798 207.205 235.538Z" fill="#271624"/>
<path fill-rule="evenodd" clip-rule="evenodd" d="M107.203 247.123L106.918 246.674C104.022 242.218 98.4866 236.751 92.75 238.254C91.944 238.465 91.154 238.805 90.442 239.246C87.29 238.818 83.99 239.534 81.28 241.201L81.3537 241.388C81.3655 241.42 81.376 241.451 81.384 241.484C81.631 242.568 81.487 243.57 80.981 244.566C80.432 245.645 79.649 246.668 78.589 247.287C77.862 247.711 77.007 247.934 76.169 247.917C74.94 247.895 73.858 247.354 72.97 246.528C72.487 246.08 72.15 245.423 71.964 244.747C71.526 245.167 71.101 245.635 70.696 246.166C64.045 254.912 64.964 268.966 72.767 276.762C73.082 277.076 73.417 277.36 73.748 277.65C76.916 282.011 81.799 284.971 87.664 285.57C93.094 286.125 98.524 284.519 102.688 281.227C102.353 281.049 102.04 280.818 101.77 280.512C101.059 279.707 100.474 278.913 100.042 277.93C99.9334 277.683 99.8287 277.434 99.7295 277.182L99.585 276.803C99.5599 276.734 99.3383 276.094 99.3972 276.207L99.4108 276.232L99.3322 276.048C98.5869 274.188 98.8881 272.061 100.657 270.895L100.852 270.773C101.43 270.436 102.146 270.277 102.871 270.275C104.677 268.064 107.365 267.557 109.888 268.203L109.977 267.49C109.99 267.37 110.002 267.251 110.01 267.131C111.965 260.65 111.022 253.285 107.203 247.123Z" fill="#271624"/>
<path fill-rule="evenodd" clip-rule="evenodd" d="M195.315 181.329L194.666 181.228C189.758 180.519 186.421 181.335 183.229 185.53C181.708 187.529 182.177 190.548 183.229 192.591C186.627 199.192 195.975 197.827 202.271 199.138C208.418 200.417 214.55 202.158 220.302 204.692C226.171 207.278 231.68 210.337 237.052 213.83C241.911 216.991 246.318 221.742 251.869 223.581C252.119 223.664 252.42 223.44 252.405 223.175C252.009 216.862 246.736 211.067 242.652 206.571C237.928 201.372 232.183 196.756 226.2 193.086C220.026 189.3 213.352 186.183 206.442 184.009C202.803 182.864 199.08 181.954 195.315 181.329Z" fill="#271624"/>
<path fill-rule="evenodd" clip-rule="evenodd" d="M120.538 189.901C114.358 180.864 98.9951 182.597 89.9301 185.012C78.5641 188.038 66.2481 194.159 58.2781 203.019C51.1391 210.956 61.8201 221.268 69.8481 214.589L71.9906 212.812L73.3617 211.686C79.5246 206.653 85.6278 202.097 93.1381 198.741C101.944 194.808 110.867 192.892 120.174 190.796C120.54 190.714 120.755 190.218 120.538 189.901Z" fill="#271624"/>
<path fill-rule="evenodd" clip-rule="evenodd" d="M132.77 291.716C125.258 296.369 113.842 307.169 122.061 318.479C131.708 328.432 145.378 316.812 152.118 311.553C158.375 307.468 165.53 317.778 159.733 322.536C111.017 359.242 90.5655 293.271 128.906 286.351C133.127 285.589 134.737 290.279 132.77 291.716Z" fill="#271624"/>
</svg>
