<svg width="818" height="1218" viewBox="0 0 818 1218" fill="none" xmlns="http://www.w3.org/2000/svg">
<path fill-rule="evenodd" clip-rule="evenodd" d="M790.748 1197.69C810.074 1196.75 802.301 1162.95 800.914 1150.53C785.613 1105.19 789.21 1055.72 783.192 1008.19C779.443 963.821 774.626 919.591 770.574 875.257C762.616 785.263 705.469 602.059 640.254 572.596C632.039 536.55 598.108 502.901 555.178 502.901C525.898 468.242 490.655 443.85 445.452 448.775C426.772 449.625 408.656 469.437 390.757 473.263C380.735 474.645 291.795 471.088 273.979 481.669C261.569 488.041 250.366 499.816 254.015 514.807C259.837 532.969 241.744 513.317 204.001 532.702C127.038 578.925 173.028 640.762 175.066 642.678C127.038 709.501 85.059 763.713 65.636 845.39C53.048 906.029 54.465 968.628 43.918 1029.58C40.194 1050.71 34.481 1071.12 28.299 1091.65C21.599 1118.51 18.3411 1185.45 14.6481 1186.05C7.92112 1187.72 18.536 1201.53 25.664 1201.54C223.288 1234.32 424.026 1202.9 622.712 1197.77C678.705 1195.82 734.758 1195.37 790.748 1197.69Z" fill="white"/>
<path fill-rule="evenodd" clip-rule="evenodd" d="M491.219 648.576C491.311 647.671 492.531 647.673 492.625 648.576L494.02 662.045C495.718 678.495 497.352 694.913 498.537 711.44C500.014 732.049 501.002 752.653 501.478 773.308C503.138 845.245 503.468 917.22 503.608 989.175C513.339 988.501 523.071 987.852 532.808 987.224C539.414 986.797 546.021 986.388 552.628 985.985L569.475 984.964V984.964L576.411 984.538C581.098 984.248 586.423 983.068 589.7 987.22C591.012 988.882 591.67 991.042 590.447 993.015C587.626 997.566 583.293 997.407 578.392 997.604C573.768 997.791 569.144 997.974 564.52 998.152C554.611 998.537 544.703 998.9 534.791 999.178C524.389 999.47 513.992 999.707 503.594 999.884C503.489 1030.26 502.232 1060.6 500.873 1090.94L500.258 1104.6C498.595 1141.52 496.806 1178.48 494.265 1215.36C494.056 1218.38 489.785 1218.37 489.578 1215.36C486.716 1173.83 484.828 1132.21 482.956 1090.63C481.598 1060.47 480.808 1030.32 480.432 1000.15C479.057 1000.16 477.683 1000.18 476.309 1000.19C437.282 1000.36 398.265 1000.53 359.238 1000.16C359.303 1000.24 359.367 1000.31 359.41 1000.42C362.234 1007.08 362.503 1015.59 362.434 1022.75C362.355 1030.95 361.25 1039.06 359.36 1047.04C352.589 1075.63 335.123 1101.23 315.231 1122.4L314.581 1123.09C309.889 1128.05 304.506 1133.03 301.625 1139.34C298.682 1145.79 297.661 1153.33 296.209 1160.26L296.039 1161.06L290.361 1187.28C288.557 1195.61 288.045 1207.76 281.451 1213.77C275.299 1219.38 267.149 1216.45 264.254 1209.23C261.993 1203.6 264.245 1197.41 265.584 1191.78L276.075 1147.68C277.799 1140.49 279.683 1133.25 283.403 1126.79C287.214 1120.17 292.801 1115.37 298.502 1110.46C309.297 1101.17 319.207 1090.53 327.588 1079.01C335.966 1067.49 343.126 1054.8 348.147 1041.45C350.661 1034.77 352.721 1027.83 354.142 1020.83C355.493 1014.19 355.481 1007.31 356.926 1000.74C357.025 1000.29 357.408 999.976 357.847 999.838C357.743 999.545 357.902 999.149 358.312 999.123L390.23 997.072C418.601 995.242 446.972 993.365 475.318 991.22L480.327 990.858V990.858C479.938 950.613 480.268 910.36 480.995 870.1C481.661 833.181 481.675 796.252 482.773 759.338C483.319 741.017 484.496 722.739 485.806 704.456C487.146 685.758 489.291 667.218 491.219 648.576ZM191.527 862.641C191.187 860.591 193.766 859.321 194.955 861.196C208.546 882.618 215.099 905.887 217.861 930.956C220.301 953.081 219.582 975.525 218.367 997.708C217.071 1021.37 215.559 1045.02 214.03 1068.67L211.681 1104.93V1104.93L205.786 1195.84C205.364 1202.34 203.888 1208.26 198.289 1211.28C197.58 1211.87 196.841 1212.4 195.98 1212.86C192.955 1214.48 188.943 1213.66 187.194 1210.56L187.895 1211.02C188.506 1211.4 187.82 1210.87 185.837 1209.41L184.154 1207.23V1207.23C182.931 1205.4 182.15 1203.59 181.836 1201.4C181.348 1198.01 181.98 1194.28 182.202 1190.87L186.066 1131.26V1131.26C189.071 1084.92 192.58 1038.59 195.225 992.22C196.457 970.61 197.32 948.979 196.736 927.331C196.154 905.803 195.057 883.91 191.527 862.641ZM309.101 463.586L309.855 463.459C336.85 458.975 366.204 459.814 390.875 472.827C391.079 472.934 390.986 473.273 390.757 473.263L382.816 472.946C357.677 471.962 332.616 471.379 307.898 477.285L305.368 477.895C296.466 480.066 287.17 482.724 280.02 488.603C273.186 494.223 269.783 502.892 266.511 510.873L266.073 511.926C262.754 519.809 258.552 527.284 251.275 532.213C241.85 538.596 230.515 537.814 219.708 538.681C200.68 540.21 185.123 554 177.383 570.875C172.696 581.093 170.697 592.549 170.301 603.723C170.098 609.412 170.069 615.323 170.827 620.974C171.069 622.781 173.303 629.364 174.442 629.206C176.973 628.855 179.287 630.175 180.076 632.198C186.328 626.158 192.76 620.292 199.399 614.637C215.948 600.544 233.773 587.771 252.545 576.795C266.872 568.417 281.984 560.117 297.633 553.842C296.393 553.816 295.17 554.062 293.987 554.677C293.469 554.948 292.954 554.298 293.363 553.868C298.292 548.682 304.196 547.944 310.148 549.327C311.418 548.923 312.689 548.532 313.965 548.161C314.6 547.976 314.916 548.851 314.398 549.189L312.936 550.123V550.123C319.429 552.298 325.804 556.573 330.851 559.947C345.349 569.636 358.11 581.481 371.046 593.104L373.398 595.211C384.785 605.378 396.461 615.258 409.398 623.414C416.17 627.683 423.283 631.632 430.744 634.569C437.143 637.09 447.562 638.677 450.559 645.44C453.223 648.676 452.11 652.806 448.99 654.984C443.728 660.775 433.202 657.034 426.932 654.622C419.373 651.714 412.05 648.219 405.066 644.12C391.507 636.16 379.005 626.263 367.359 615.735C355.196 604.739 343.723 593.058 331.893 581.717C326.767 576.803 321.76 571.774 316.626 566.867L314.048 564.425C311.428 561.968 307.695 558.138 303.704 555.82C296.185 560.305 288.55 564.605 281.099 569.206C270.698 575.628 260.603 582.513 250.664 589.625C231.53 603.316 213.398 618.65 196.565 635.086C165.693 665.228 139.391 699.648 116.414 736.094L114.669 738.872C101.612 759.732 89.265 781.266 80.5101 804.316C70.8771 829.681 66.1921 856.354 63.6471 883.279C61.1211 910.011 60.2691 936.878 57.4461 963.585C54.5511 990.976 48.8471 1017.76 42.3591 1044.5L40.8117 1050.84C34.9411 1074.78 28.8818 1098.73 25.8641 1123.24C24.2531 1136.33 23.2841 1149.6 23.5031 1162.8C23.7231 1176.07 25.8091 1189.05 27.4921 1202.19C28.1371 1207.22 23.1851 1211.42 18.7541 1212.09C13.6581 1212.85 9.28009 1209.6 7.69609 1204.87C2.75809 1190.11 1.86109 1173.8 2.01609 1158.31C2.17209 1142.58 4.17909 1126.96 7.00309 1111.51C12.5571 1081.11 21.1281 1051.34 28.2981 1021.31C34.6171 994.833 38.8581 968.315 41.1441 941.196C43.5171 913.06 44.9381 884.83 49.2671 856.897C53.5401 829.321 61.5801 802.981 73.7051 777.836C84.7451 754.942 98.5071 733.393 112.935 712.506C130.456 687.143 149.699 663.008 171.209 641.018C169.277 640.934 167.293 640.31 165.471 639.174C159.897 635.697 157.301 628.896 156.503 622.686C154.635 608.159 155.086 592.993 158.822 578.79C164.849 555.878 180.491 535.52 203.161 527.261C208.996 525.135 215.199 524.359 221.383 524.206C227.251 524.06 233.66 524.825 239.322 522.965C248.334 520.003 252.197 509.389 255.581 501.343L255.737 500.973C260.076 490.72 265.284 481.932 274.682 475.53C284.709 468.699 297.271 465.592 309.101 463.586V463.586ZM565.599 504.134C573.711 501.32 583.853 503.874 591.786 506.332C600.624 509.072 608.791 514.118 615.793 520.111C623.18 526.431 629.285 534.235 633.598 542.953L634.01 543.793C637.949 551.879 642.436 562.981 640.45 571.866C640.393 572.118 640.328 572.361 640.254 572.596C656.349 580.519 671.213 590.443 684.157 603.021C699.229 617.666 711.991 634.331 722.791 652.335C765.684 723.842 773.234 809.722 778.3 891.271L779.563 911.948C782.314 956.597 785.533 1001.14 793.896 1045.17L794.506 1048.35C803.444 1094.45 816.24 1140.91 814.944 1188.2C814.555 1202.37 793.613 1202.28 793.006 1188.2C790.72 1135.23 778.358 1084.08 769.987 1031.94C755.258 940.198 762.638 845.618 741.768 754.796C733.578 719.154 720.891 684.581 702.774 652.766C693.825 637.049 683.586 621.862 671.592 608.303C661.273 596.636 650.548 585.408 638.489 575.6C634.635 579.46 626.936 577.493 624.924 571.866C623.542 567.999 623.945 563.478 623.058 559.427C622.235 555.668 621.1 551.941 619.588 548.401C616.574 541.346 612.15 534.571 607.043 528.861C601.526 522.689 595.185 517.561 588.09 513.327C580.946 509.064 573.133 507.791 565.599 504.676C565.345 504.571 565.321 504.231 565.599 504.134ZM597.115 994.429C597.127 994.057 597.566 993.881 597.836 994.13C600.68 996.747 602.399 1000.5 604.492 1003.72C606.906 1007.43 609.441 1011.07 612.099 1014.61C617.425 1021.71 623.354 1028.4 629.33 1034.95C634.888 1041.04 640.812 1046.88 646.957 1052.38C653.615 1058.34 661.076 1063.66 667.125 1070.27C679.747 1084.04 681.786 1102.95 684.449 1120.7L684.741 1122.62C686.365 1133.16 687.82 1143.72 689.132 1154.3C689.77 1159.45 690.406 1164.6 690.926 1169.76L691.085 1171.39C691.548 1176.44 691.673 1181.57 688.773 1185.98C685.668 1190.7 678.609 1192.36 674.412 1187.83C667.201 1180.05 668.553 1166.24 667.615 1156.23C666.84 1147.96 665.961 1139.7 664.977 1131.45L664.476 1127.32C663.316 1117.94 662.374 1108.36 660.227 1099.14C658.334 1091.02 654.727 1084.89 648.809 1079C642.847 1073.08 636.652 1067.54 631.149 1061.16C625.312 1054.39 620.047 1047.13 615.303 1039.56C611.245 1033.08 607.993 1026.02 605.013 1018.98L604.519 1017.81C601.639 1010.94 596.89 1002 597.115 994.429ZM701.227 699.384C701.29 698.426 702.706 698.411 702.727 699.384C702.906 707.624 703.078 715.864 703.249 724.105C704.625 790.507 703.777 857.066 710.439 923.24C713.581 954.441 719.367 985.183 726.062 1015.8C729.488 1031.46 733.082 1047.09 736.497 1062.76C739.825 1078.03 743.394 1093.37 746.034 1108.78C748.628 1123.93 750.952 1139.19 751.995 1154.53L752.123 1156.53C752.572 1163.96 754.715 1174.89 750.623 1181.48C746.189 1188.62 737.7 1188.74 732.949 1181.93C728.488 1175.54 729.597 1164.16 728.809 1156.53C728.008 1148.76 727.161 1140.98 726.199 1133.23C724.322 1118.1 721.849 1103.01 719.277 1087.98C713.92 1056.69 706.15 1025.8 700.415 994.561C694.537 962.552 690.359 930.314 690.183 897.724C690.008 864.857 693.487 832.054 695.243 799.259C697.027 765.951 699.055 732.668 701.227 699.384ZM387.547 492.85C389.33 486.847 395.622 483.094 401.76 484.78C407.385 486.326 412.029 493.153 409.83 498.994C407.43 505.368 403.236 510.803 399.7 516.596C396.434 521.949 391.67 526.164 388.343 531.422L392.009 535.375C393.843 537.347 395.683 539.306 397.543 541.232L403.937 547.856C408.918 553.004 413.929 558.124 419.082 563.093C434.234 577.708 449.626 591.843 466.595 604.359C470.458 607.207 474.351 610.039 478.353 612.691L479.845 613.68C482.591 615.478 485.654 617.245 488.971 616.94C497.03 616.2 504.313 607.641 509.851 602.314L510.141 602.036C523.866 588.977 536.575 574.699 547.686 559.347C550.153 555.936 552.542 552.467 554.868 548.957C549.496 542.682 550.779 530.433 550.483 522.823C550.274 517.472 550.258 512.12 550.229 506.765L550.214 505.686C550.149 502.22 549.993 498.895 552.242 496.043C552.373 495.878 552.644 495.883 552.811 495.97C555.892 497.585 556.841 500.288 558.155 503.32L558.293 503.634C559.893 507.273 561.425 510.946 562.975 514.606C564.598 518.438 566.086 522.326 567.594 526.204C568.296 528.008 568.966 529.819 569.621 531.64C570.02 532.803 570.433 533.96 570.857 535.115L570.957 535.204C571.517 535.679 571.992 536.181 572.401 536.699C574.12 537.559 575.486 539.126 576.127 541.428C577.522 546.439 574.635 550.525 572.06 554.502C561.6 570.662 549.676 586.061 536.422 600.03C529.838 606.97 522.913 613.598 515.703 619.885L514.442 620.977C507.966 626.543 500.934 631.815 492.284 633.117C482.161 634.641 473.923 629.606 466.174 623.808L465.401 623.225C458.055 617.664 450.857 611.908 443.883 605.887C429.664 593.611 416.137 580.43 404.132 565.969C392.454 551.903 380.911 536.175 373.713 519.25C373.274 518.219 374.428 517.14 375.332 518.001C378.848 521.348 382.231 524.877 385.574 528.451C385.667 523.19 384.696 517.884 385.236 512.59C385.895 506.155 385.705 499.046 387.547 492.85Z" fill="#271624"/>
<path fill-rule="evenodd" clip-rule="evenodd" d="M608.56 227.617C599.831 189.388 580.343 153.717 548.907 124.756C454.376 29.7107 278.889 79.3898 278.486 221.413C274.927 237.972 273.396 255.016 274.385 271.942C274.792 279.163 277.832 289.262 273.58 295.723C264.011 307.796 258.434 316.707 261.52 332.9C264.093 347.037 273.614 357.117 286.533 362.542C294.289 364.839 301.625 369.761 304.442 377.193C321.481 409.021 334.079 435.482 361.18 457.304C368.173 462.922 440.095 496.871 463.885 497.071C533.534 497.658 621.529 473.168 623.641 395.383C624.037 378.298 621.184 360.986 619.446 344.018C615.193 305.292 617.146 265.218 608.56 227.617Z" fill="white"/>
<path fill-rule="evenodd" clip-rule="evenodd" d="M607.153 208.521C607.179 208.049 607.856 207.949 607.983 208.416C610.495 217.622 611.883 226.991 613.829 236.336C615.704 245.337 617.469 254.363 618.924 263.44C621.671 280.57 623.963 297.741 626.084 314.955L626.611 319.259C630.294 349.548 636.532 381.123 630.589 411.508C625.518 437.435 609.071 458.228 587.973 473.396C567.997 487.757 543.846 496.878 519.9 501.977C494.199 507.452 463.778 508.894 443.064 489.907C434.772 482.304 446.288 467.454 455.296 474.328C476.447 490.466 503.564 485.989 527.635 479.842L528.364 479.655C549.491 474.218 570.783 465.885 587.639 451.669C606.275 435.95 615.61 413.996 616.87 389.842C617.577 376.271 616.426 362.701 615.174 349.193L615.035 347.693C613.598 332.246 612.084 316.806 610.697 301.354C609.431 287.263 608.356 273.092 607.844 258.945L607.61 251.81C607.118 237.425 606.415 222.827 607.153 208.521ZM358.526 86.931C393.314 69.1902 433.175 63.0717 471.671 69.448C508.679 75.5778 542.527 94.9855 567.716 122.618C580.014 136.109 590.899 151.686 597.796 168.662C601.222 177.095 603.886 185.884 605.268 194.9C605.979 199.536 606.676 204.338 606.778 209.032C606.871 213.378 605.561 217.442 605.674 221.86C605.692 222.551 604.632 222.675 604.476 222.012C603.314 217.077 600.444 213.328 598.664 208.635C597.333 205.131 595.818 201.708 594.276 198.295L592.951 195.371C589.105 186.871 584.49 178.713 579.925 170.584C570.734 154.212 558.889 139.304 544.979 126.691C520.555 104.547 489.105 90.1205 456.176 87.2932C421.999 84.3573 387.241 92.2169 357.882 110.028C328.525 127.839 306.206 155.722 294.468 187.943C288.546 204.203 285.208 221.168 284.319 238.439C283.87 247.182 284.147 256.004 284.686 264.738L284.956 268.902C285.27 273.897 285.473 278.872 284.686 283.736C289.968 282.138 295.495 281.503 301.03 282.363C309.255 283.64 314.146 287.057 317.778 294.446C317.968 294.832 317.578 295.213 317.196 295.018C312.428 292.588 304.669 293.781 299.587 294.991C294.298 296.251 289.525 298.478 285.014 301.507C276.67 307.106 270.092 315.835 268.412 325.901C266.787 335.623 270.7 345.515 277.355 352.549C280.781 356.172 284.886 359.314 289.494 361.288C295.087 363.687 300.644 363.66 305.577 367.583C308.627 370.008 307.85 374.106 305.746 376.753C316.126 388.329 325.31 400.974 335.689 412.595C340.5 417.982 345.272 423.374 349.878 428.931L351.597 431.023C356.196 436.669 363.538 442.654 365.601 449.723C366.885 454.121 362.139 459.82 357.407 457.781C350.149 454.652 345.016 446.628 340.145 440.466L339.828 440.067C334.719 433.681 330.193 426.946 326.062 419.894L324.704 417.571C317.235 404.766 309.835 391.487 305.122 377.449C304.8 377.774 304.46 378.07 304.101 378.32C297.1 383.21 287.014 379.32 280.091 376.048C273.554 372.96 267.577 368.345 262.935 362.805C252.838 350.757 248.267 335.226 251.804 319.731C254.799 306.604 264.022 293.89 276.027 287.338C270.565 280.942 268.353 272.363 266.904 263.982C265.054 253.283 264.759 242.332 265.377 231.504C266.61 209.936 272.342 188.715 281.092 169.03C296.747 133.807 324.147 104.465 358.526 86.931ZM283.641 322.22C290.922 320.919 297.699 320.647 304.685 323.782C312.263 327.185 317.569 332.742 322.491 339.241C328.091 346.635 313.513 354.537 309.936 344.755L309.831 344.453C308.876 341.558 307.144 338.752 304.943 336.165C304.267 337.181 303.368 338.073 302.316 338.58C301.041 339.193 299.107 338.745 298.816 337.121C298.493 335.319 298.885 333.143 299.936 331.628L300.08 331.421V331.421C295.07 327.32 289.028 324.304 283.632 323.305C283.092 323.204 283.106 322.315 283.641 322.22Z" fill="#271624"/>
<path fill-rule="evenodd" clip-rule="evenodd" d="M545.001 390.799C552.568 389.81 560.732 385.598 567.922 389.138C571.284 390.792 572.839 396.366 570.531 399.438C567.006 404.129 563.402 404.88 557.741 405.286C553.497 405.591 549.233 405.58 545.007 405.055L543.933 404.914C536.393 403.877 528.567 401.704 522.762 396.583C521.575 395.535 522.207 393.298 523.744 392.987C530.7 391.584 537.964 391.718 545.001 390.799ZM536.251 373.319C536.248 373.258 536.341 373.259 536.344 373.32C536.49 377.641 537.671 381.656 539.883 385.371C539.914 385.424 539.833 385.47 539.802 385.418C537.588 381.7 536.397 377.644 536.251 373.319ZM560.828 284.364C568.34 289.017 579.756 299.817 571.537 311.127C561.89 321.08 548.22 309.46 541.48 304.2C535.223 300.115 528.068 310.426 533.865 315.183C582.581 351.89 603.032 285.919 564.692 278.999C560.471 278.237 558.861 282.927 560.828 284.364ZM599.909 233.324C601.682 233.339 603.372 233.955 604.908 235.082C606.418 236.19 607.781 237.802 608.91 239.807C611.047 243.6 612.359 248.825 612.311 254.589C612.262 260.353 610.863 265.555 608.662 269.312C607.499 271.298 606.109 272.886 604.58 273.969C603.026 275.07 601.325 275.657 599.552 275.642C597.779 275.627 596.088 275.011 594.553 273.885C593.042 272.776 591.68 271.165 590.55 269.16C588.413 265.366 587.101 260.141 587.15 254.377C587.198 248.613 588.598 243.411 590.799 239.654C591.962 237.669 593.351 236.08 594.881 234.997C596.434 233.897 598.135 233.309 599.909 233.324ZM517.745 238.512L518.413 238.391C522.314 237.715 524.28 237.97 527.649 240.653C530.181 242.67 529.418 246.592 527.581 248.675C524.382 252.304 521.292 251.631 516.951 251.734L516.646 251.742C513.028 251.859 509.407 251.931 505.787 251.956C504.797 251.963 503.806 251.951 502.816 251.949C502.844 261.11 497.503 268.04 490.503 273.285C485.978 276.676 480.325 272.672 478.757 268.391C477.459 264.848 477.211 260.502 477.932 256.641C478.198 255.218 478.743 253.675 479.566 252.363L479.798 252.011L479.765 251.505C479.757 251.379 479.767 251.259 479.764 251.134C473.31 250.687 466.895 249.985 460.485 249.117L458.348 248.822C452.876 248.051 444.833 247.75 440.43 244.15C440.291 244.035 440.343 243.786 440.492 243.709C442.94 242.417 445.412 242.512 448.138 242.414L448.529 242.398C451.495 242.27 454.453 242.167 457.416 242.091L460.381 242.023C467.965 241.87 475.556 241.566 483.135 241.227C484.452 241.168 485.77 241.096 487.089 241.026C488.473 240.459 489.942 240.126 491.391 240.074C492.591 240.03 493.743 240.206 494.826 240.56C497.594 240.37 500.361 240.16 503.126 239.933L505.89 239.7C509.791 239.362 513.89 239.234 517.745 238.512ZM566.19 170.257C574.557 166.232 584.689 166.218 593.242 169.679L593.809 169.914C602.446 173.584 612.82 181.98 610.472 192.309C608.323 201.763 593.48 200.033 592.802 191.074C588.061 184.388 577.317 182.839 570.52 187.008C566.397 189.538 563.546 193.831 561.585 198.168C559.914 201.862 559.567 206.439 557.021 209.647C556.938 209.752 556.774 209.769 556.655 209.74C549.158 207.939 549.084 196.001 550.414 190.222C552.346 181.82 558.385 174.014 566.19 170.257Z" fill="#271624"/>
<path fill-rule="evenodd" clip-rule="evenodd" d="M582.388 352.18C594.095 353.11 605.113 360.471 615.143 366.173C624.792 372.049 631.897 380.693 637.55 390.312L637.917 390.941C638.249 391.443 637.645 391.998 637.153 391.804L637.077 391.767C627.6 386.912 617.591 382.958 608.292 377.67C599.215 371.952 588.028 369.93 578.879 364.722C573.657 360.783 575.305 352.421 582.388 352.18ZM551.873 357.607C552.278 360.282 551.163 364.514 547.645 365.723C541.463 367.845 535.841 368.97 529.636 370.614L521.593 372.794C506.142 377.006 490.457 381.535 476.753 388.26L476.327 388.069C466.466 381.783 521.446 356.371 540.389 352.409C543.87 351.68 551.262 353.569 551.873 357.607Z" fill="#271624"/>
<path d="M346.165 366.873C343.046 357.011 355.051 349.358 362.547 356.485C371.605 365.099 380.928 374.089 387.328 380.583C395.653 389.031 417.988 398.67 438.265 406.204C448.065 409.845 447.143 424.975 436.88 426.972L386.374 436.801C382.582 437.538 378.713 436.035 376.53 432.848C370.18 423.581 357.286 403.572 352.481 387.364C350.67 381.254 348.439 374.063 346.165 366.873Z" fill="#271624"/>
<ellipse cx="569.4" cy="469" rx="20.2708" ry="32.4991" transform="rotate(65.0908 569.4 469)" fill="#271624"/>
</svg>
