<svg width="177" height="89" viewBox="0 0 177 89" fill="none" xmlns="http://www.w3.org/2000/svg">
<path fill-rule="evenodd" clip-rule="evenodd" d="M58.0512 28.656C58.0384 28.5948 58.1214 28.5589 58.1536 28.6142C58.789 29.7042 59.2864 30.8532 59.8544 31.9802C60.4013 33.0656 60.9352 34.1581 61.4313 35.2675C62.3675 37.3613 63.247 39.4759 64.1061 41.6019L64.3205 42.1336C65.826 45.876 67.7018 49.6952 67.9812 53.7789C68.2195 57.2634 66.8297 60.4808 64.6536 63.1389C62.5932 65.6557 59.8206 67.6459 56.9367 69.1155C53.8415 70.693 50.0057 71.9168 46.7114 70.1998C45.3925 69.5122 46.3558 67.2222 47.7411 67.7922C50.9938 69.1303 54.304 67.6319 57.1681 66.0242L57.2547 65.9754C59.7671 64.559 62.2016 62.7673 63.8685 60.3756C65.7113 57.7313 66.1531 54.6085 65.4887 51.4807C65.1152 49.7234 64.5044 48.0296 63.8829 46.3474L63.8139 46.1605C63.1025 44.2369 62.3814 42.3167 61.6762 40.3907C61.0331 38.6345 60.4115 36.8614 59.8627 35.0722L59.5889 34.169C59.0344 32.3486 58.4458 30.5083 58.0512 28.656ZM22.1435 21.6243C25.9801 18.1698 30.8617 16.0261 35.9959 15.5249C40.9317 15.043 45.9177 16.3649 50.0789 19.033C52.1106 20.3357 54.0331 21.953 55.4941 23.8853C56.2198 24.8452 56.8604 25.8767 57.3451 26.9809C57.5943 27.5486 57.8473 28.1381 58.0207 28.7341C58.1812 29.2859 58.1527 29.8497 58.3182 30.4101C58.344 30.4978 58.2129 30.5498 58.1704 30.4704C57.8533 29.8799 57.3587 29.4993 56.9709 28.9608C56.6812 28.5587 56.3708 28.1733 56.0572 27.7901L55.7881 27.4619C55.0063 26.5079 54.1382 25.6237 53.2775 24.7416C51.5441 22.9648 49.5219 21.4656 47.3144 20.3303C43.4385 18.3368 38.9289 17.5692 34.6269 18.3334C30.1617 19.1265 25.9914 21.3181 22.8506 24.5961C19.7101 27.874 17.8125 32.1977 17.4146 36.7138C17.214 38.9928 17.3675 41.2735 17.8442 43.5096C18.0856 44.6415 18.4224 45.7586 18.7898 46.8556L18.9665 47.3783C19.1774 48.0054 19.3733 48.6338 19.439 49.282C20.0589 48.8973 20.7432 48.6274 21.4794 48.548C22.5734 48.4301 23.3149 48.6993 24.0313 49.5189C24.0687 49.5616 24.0318 49.6236 23.9765 49.6118C23.2844 49.4644 22.3344 49.8819 21.7267 50.2101C21.0943 50.5517 20.5608 50.9993 20.0883 51.5402C19.2139 52.5404 18.6722 53.8801 18.8015 55.223C18.9263 56.5202 19.7641 57.6497 20.8545 58.3206C21.4158 58.6663 22.0473 58.9272 22.7034 59.0219C23.4996 59.1371 24.2083 58.9438 24.9724 59.2762C25.4448 59.4817 25.4857 60.0316 25.3073 60.4415C27.0286 61.5651 28.6337 62.8663 30.3563 63.9957C31.1548 64.5192 31.9485 65.0448 32.7267 65.5971L33.0178 65.8054C33.798 66.3693 34.9402 66.8828 35.4453 67.7151C35.7596 68.2329 35.3482 69.1229 34.6742 69.0242C33.6403 68.8727 32.7105 68.0234 31.8779 67.4028L31.8237 67.3627C30.9531 66.7217 30.1449 66.0163 29.3763 65.2569L29.1235 65.0066C27.732 63.6264 26.3331 62.1835 25.2515 60.5517C25.2215 60.6042 25.1881 60.6537 25.1509 60.6979C24.4239 61.5617 23.0029 61.4095 22.0068 61.2282C21.0665 61.0572 20.1455 60.6722 19.3632 60.1232C17.662 58.9297 16.5476 57.1024 16.4697 55.0026C16.4037 53.2238 17.147 51.2848 18.4563 50.0379C17.5401 49.4077 16.9645 48.3877 16.4929 47.3668C15.891 46.0636 15.4792 44.6752 15.1881 43.2712C14.6084 40.4746 14.6152 37.5685 15.06 34.7555C15.8556 29.7222 18.3521 25.0385 22.1435 21.6243ZM20.6206 54.2325C21.506 53.8175 22.3623 53.5512 23.3616 53.7128C24.4457 53.8884 25.3133 54.4168 26.1639 55.0787C27.1317 55.8315 25.54 57.3389 24.749 56.2118L24.7253 56.1769C24.5043 55.8398 24.1873 55.5406 23.8177 55.2854C23.7662 55.4383 23.6818 55.583 23.5647 55.6836C23.4229 55.8055 23.1606 55.8143 23.0679 55.6169C22.9651 55.3979 22.9408 55.1064 23.0232 54.8772L23.0345 54.8458V54.8458C22.2546 54.4932 21.3799 54.3145 20.6565 54.3713C20.5842 54.3769 20.5556 54.2629 20.6206 54.2325Z" fill="#271624"/>
<path fill-rule="evenodd" clip-rule="evenodd" d="M56.3427 54.0589C57.2754 53.674 58.174 52.8571 59.2133 53.0634C59.6991 53.1598 60.0882 53.8186 59.8984 54.2897C59.6086 55.0093 59.174 55.2284 58.4649 55.4737C57.9333 55.6576 57.3884 55.8019 56.8308 55.8794L56.6887 55.8981C55.6904 56.0232 54.6166 56.0132 53.7003 55.5575C53.5128 55.4643 53.5171 55.157 53.7028 55.0647C54.5433 54.6479 55.4754 54.4168 56.3427 54.0589ZM54.6279 52.1255C54.6255 52.1178 54.6374 52.1147 54.6398 52.1224C54.8062 52.6693 55.0942 53.1418 55.5037 53.5405C55.5095 53.5463 55.5006 53.555 55.495 53.5494C55.0852 53.1502 54.7945 52.6729 54.6279 52.1255ZM54.7267 39.925C55.8452 40.2626 57.6721 41.2517 57.009 42.9771C56.1171 44.5778 53.9742 43.561 52.9337 43.1196C51.995 42.8117 51.4336 44.373 52.3365 44.7825C59.8125 47.8055 60.1699 38.6814 55.0369 39.1079C54.4718 39.1548 54.4265 39.8088 54.7267 39.925ZM57.9735 32.0711C58.2005 32.0125 58.4375 32.0334 58.672 32.1248C58.9029 32.2148 59.1319 32.374 59.3447 32.5914C59.7473 33.0029 60.0934 33.6253 60.2841 34.3631C60.4749 35.1009 60.4739 35.8131 60.3213 36.3681C60.2406 36.6614 60.1174 36.9117 59.9591 37.1023C59.7983 37.296 59.6012 37.4292 59.3742 37.4879C59.1472 37.5466 58.9103 37.5257 58.6757 37.4342C58.4449 37.3442 58.2158 37.185 58.003 36.9676C57.6004 36.5561 57.2543 35.9337 57.0636 35.1959C56.8728 34.4581 56.8738 33.746 57.0264 33.1909C57.1071 32.8976 57.2303 32.6473 57.3886 32.4567C57.5494 32.263 57.7465 32.1298 57.9735 32.0711ZM47.6575 35.5416L47.7388 35.5033C48.2138 35.2837 48.4736 35.2491 48.9956 35.4766C49.3879 35.6476 49.4245 36.1747 49.2611 36.5034C48.9766 37.0762 48.5589 37.0958 48.008 37.2573L47.9694 37.2688C47.5113 37.4073 47.0514 37.5403 46.5898 37.6672C46.4637 37.702 46.3367 37.7343 46.2102 37.7678C46.5268 38.9369 46.0816 40.0045 45.3668 40.9135C44.9048 41.5012 44.046 41.183 43.6994 40.6898C43.4127 40.2817 43.2325 39.7352 43.1925 39.2175C43.178 39.0266 43.1948 38.811 43.2551 38.6152L43.2726 38.5624L43.2511 38.4988C43.2458 38.4831 43.243 38.4674 43.2383 38.4515C42.3988 38.615 41.5556 38.7446 40.7072 38.8529L40.4242 38.8882C39.6991 38.9767 38.6617 39.2131 37.9763 38.9038C37.9546 38.8939 37.9528 38.8603 37.9691 38.8453C38.2376 38.5967 38.5565 38.5244 38.9014 38.4187L38.9508 38.4033C39.3251 38.2856 39.6994 38.1714 40.0752 38.0604L40.4516 37.9504C41.4148 37.6717 42.374 37.3734 43.3302 37.0711C43.4965 37.0185 43.6623 36.9643 43.8284 36.9103C43.9858 36.7907 44.162 36.6979 44.3452 36.6417C44.497 36.5951 44.6502 36.5782 44.8005 36.5864C45.1476 36.4675 45.4938 36.3462 45.8391 36.2227L46.1842 36.0985C46.6708 35.922 47.19 35.7656 47.6575 35.5416Z" fill="#271624"/>
<path fill-rule="evenodd" clip-rule="evenodd" d="M59.7982 47.8492C61.325 47.5678 62.9837 48.1314 64.4595 48.5169C65.8926 48.9375 67.0954 49.7987 68.1461 50.834L68.2144 50.9017C68.274 50.9544 68.2158 51.0461 68.1464 51.038L68.1354 51.0359C66.7592 50.7397 65.3458 50.5768 63.9774 50.2193C62.6229 49.7993 61.125 49.9233 59.7786 49.5709C58.9772 49.2462 58.9018 48.1221 59.7982 47.8492ZM56.0865 49.585C56.2296 49.9129 56.2319 50.4914 55.8239 50.7661C55.107 51.2484 54.4273 51.5842 53.6911 52.0062L52.7384 52.5594C50.9091 53.6254 49.0608 54.7398 47.5404 56.067L47.4794 56.0571C46.0054 55.5914 52.1585 50.4671 54.4423 49.3137C54.8619 49.1017 55.8705 49.0903 56.0865 49.585Z" fill="#271624"/>
<path fill-rule="evenodd" clip-rule="evenodd" d="M51.5121 25.1692C52.4432 24.3692 53.7367 24.0211 54.9473 24.1708L55.0277 24.1814C56.2562 24.355 57.8679 25.0727 57.921 26.4721C57.9697 27.7529 56.015 28.0392 55.6223 26.9182C54.7883 26.2263 53.3632 26.3958 52.6376 27.1605C52.1976 27.6244 51.9801 28.2701 51.878 28.8911C51.7908 29.42 51.9028 30.0163 51.6873 30.5131C51.6803 30.5292 51.6599 30.5371 51.6437 30.5374C50.6247 30.5636 50.2074 29.0415 50.1797 28.258C50.1393 27.119 50.6437 25.9156 51.5121 25.1692Z" fill="#271624"/>
<path d="M30.0167 57.7178C29.291 56.5587 30.5744 55.1817 31.7697 55.846C33.2142 56.6486 34.705 57.4908 35.7391 58.1102C37.0843 58.9159 40.2621 59.4104 43.1067 59.7035C44.4817 59.8453 44.8643 61.8123 43.6169 62.4076L37.4777 65.3372C37.0168 65.5572 36.4718 65.4928 36.0869 65.1572C34.9674 64.1811 32.6548 62.0469 31.5034 60.1314C31.0693 59.4093 30.5458 58.5627 30.0167 57.7178Z" fill="#271624"/>
<path d="M63.6709 65.4715C61.8375 66.9779 58.5977 68.068 57.5657 66.8119C56.5337 65.5558 54.7832 65.112 56.6166 63.6056C58.45 62.0992 64.0899 59.2135 65.122 60.4696C66.154 61.7256 65.5043 63.9651 63.6709 65.4715Z" fill="#271624"/>
<path d="M92.8498 36.9027V39.8063C92.4627 39.9999 92.0308 40.1786 91.5543 40.3424C91.0927 40.5062 90.579 40.6327 90.0132 40.7221C89.4623 40.8114 88.8518 40.8561 88.1817 40.8561C86.4097 40.8561 84.8984 40.5136 83.6476 39.8286C82.3968 39.1437 81.4438 38.1609 80.7887 36.8804C80.1484 35.5998 79.8282 34.081 79.8282 32.3239C79.8282 30.4775 80.1484 28.9066 80.7887 27.6111C81.4438 26.3008 82.3819 25.2957 83.6029 24.5959C84.8388 23.896 86.3278 23.5461 88.07 23.5461C89.1421 23.5461 90.1025 23.6652 90.9513 23.9035C91.8149 24.1268 92.4775 24.3874 92.9391 24.6852L92.8051 27.7452C92.5073 27.4771 92.1127 27.2538 91.6214 27.0751C91.1449 26.8964 90.6311 26.7624 90.0802 26.6731C89.5293 26.5837 88.9858 26.539 88.4497 26.539C87.2436 26.539 86.2608 26.7698 85.5014 27.2314C84.742 27.693 84.1836 28.3482 83.8263 29.197C83.4838 30.0308 83.3126 31.0061 83.3126 32.1229C83.3126 33.9991 83.7667 35.4211 84.675 36.389C85.5982 37.3569 86.9086 37.8408 88.6061 37.8408C89.023 37.8408 89.4623 37.811 89.9239 37.7514C90.4003 37.677 90.8843 37.5728 91.3757 37.4387C91.8819 37.3047 92.3733 37.1261 92.8498 36.9027ZM97.6901 40.521H94.2728L100.214 23.8811H103.966L109.863 40.521H106.423L101.867 26.6507H102.247L97.6901 40.521ZM105.843 37.3941H97.6008V34.7138H105.843V37.3941ZM117.206 34.5351H113.119V32.0112H117.206C118.234 32.0112 119.008 31.7804 119.529 31.3188C120.065 30.8423 120.333 30.1574 120.333 29.264C120.333 28.445 120.073 27.7824 119.552 27.2761C119.03 26.7698 118.234 26.5167 117.162 26.5167H112.94L113.208 23.8811H117.162C119.336 23.8811 120.981 24.3278 122.098 25.2212C123.229 26.1147 123.795 27.425 123.795 29.1523C123.795 30.8349 123.215 32.1527 122.053 33.1057C120.892 34.0586 119.276 34.5351 117.206 34.5351ZM115.285 40.521H111.868V23.8811H115.285V40.521ZM124.197 40.7444C123.423 40.7444 122.641 40.5806 121.852 40.253C121.078 39.9105 120.408 39.2851 119.842 38.3768L116.469 32.994L119.797 32.6813L121.74 35.6742C122.306 36.4485 122.887 37.059 123.483 37.5058C124.078 37.9525 124.815 38.1758 125.694 38.1758H126.163V40.4764C125.88 40.5508 125.567 40.6104 125.225 40.6551C124.882 40.7146 124.54 40.7444 124.197 40.7444ZM131.71 40.521H128.293V23.8811H131.71V40.521ZM138.142 40.521H128.717V37.8408H138.142V40.521ZM92.8498 57.9027V60.8063C92.4627 60.9999 92.0308 61.1786 91.5543 61.3424C91.0927 61.5062 90.579 61.6327 90.0132 61.7221C89.4623 61.8114 88.8518 61.8561 88.1817 61.8561C86.4097 61.8561 84.8984 61.5136 83.6476 60.8286C82.3968 60.1437 81.4438 59.1609 80.7887 57.8804C80.1484 56.5998 79.8282 55.081 79.8282 53.3239C79.8282 51.4775 80.1484 49.9066 80.7887 48.6111C81.4438 47.3008 82.3819 46.2957 83.6029 45.5959C84.8388 44.896 86.3278 44.5461 88.07 44.5461C89.1421 44.5461 90.1025 44.6652 90.9513 44.9035C91.8149 45.1268 92.4775 45.3874 92.9391 45.6852L92.8051 48.7452C92.5073 48.4771 92.1127 48.2538 91.6214 48.0751C91.1449 47.8964 90.6311 47.7624 90.0802 47.6731C89.5293 47.5837 88.9858 47.539 88.4497 47.539C87.2436 47.539 86.2608 47.7698 85.5014 48.2314C84.742 48.693 84.1836 49.3482 83.8263 50.197C83.4838 51.0308 83.3126 52.0061 83.3126 53.1229C83.3126 54.9991 83.7667 56.4211 84.675 57.389C85.5982 58.3569 86.9086 58.8408 88.6061 58.8408C89.023 58.8408 89.4623 58.811 89.9239 58.7514C90.4003 58.677 90.8843 58.5728 91.3757 58.4387C91.8819 58.3047 92.3733 58.1261 92.8498 57.9027ZM99.2536 61.521H95.8363V44.8811H99.2536V61.521ZM105.686 61.521H96.2607V58.8408H105.686V61.521ZM111.447 61.521H108.029V44.8811H111.447V61.521ZM118.448 61.521H115.031V44.8811H118.448V61.521ZM124.278 55.1554H115.79V52.4752H124.278V55.1554ZM125.216 47.5614H115.79V44.8811H125.216V47.5614ZM135.089 61.521H131.671V44.8811H135.089V61.521ZM140.181 47.5614H126.579V44.8811H140.181V47.5614ZM149.359 61.8561C147.662 61.8561 146.202 61.5136 144.981 60.8286C143.775 60.1288 142.845 59.1311 142.189 57.8357C141.549 56.5402 141.229 54.9916 141.229 53.1899C141.229 51.3733 141.549 49.8247 142.189 48.5441C142.845 47.2487 143.783 46.2585 145.004 45.5735C146.225 44.8886 147.684 44.5461 149.381 44.5461C151.079 44.5461 152.531 44.896 153.737 45.5959C154.958 46.2808 155.888 47.2636 156.529 48.5441C157.169 49.8247 157.489 51.3658 157.489 53.1676C157.489 54.9693 157.162 56.5253 156.506 57.8357C155.866 59.1311 154.943 60.1288 153.737 60.8286C152.531 61.5136 151.071 61.8561 149.359 61.8561ZM149.359 58.9078C150.342 58.9078 151.176 58.677 151.861 58.2154C152.56 57.7538 153.089 57.0986 153.446 56.2499C153.819 55.3862 154.005 54.3662 154.005 53.1899C154.005 51.9987 153.819 50.9787 153.446 50.13C153.089 49.2812 152.56 48.6335 151.861 48.1868C151.176 47.7252 150.342 47.4944 149.359 47.4944C148.391 47.4944 147.557 47.7252 146.857 48.1868C146.158 48.6484 145.622 49.3035 145.249 50.1523C144.892 51.001 144.713 52.0136 144.713 53.1899C144.713 54.3662 144.892 55.3862 145.249 56.2499C145.622 57.0986 146.158 57.7538 146.857 58.2154C147.557 58.677 148.391 58.9078 149.359 58.9078ZM163.487 61.521H160.203V44.8811H163.755L172.644 57.3666L171.729 57.5453V44.8811H175.012V61.521H171.974L162.995 49.1919L163.487 49.0132V61.521Z" fill="#271624"/>
</svg>
