<svg width="287" height="115" viewBox="0 0 287 115" fill="none" xmlns="http://www.w3.org/2000/svg">
<path d="M8.22125 65.6475V41.583H21.225C23.2428 41.583 24.8994 41.9692 26.1948 42.7414C27.5151 43.4888 28.4867 44.5226 29.1095 45.8429C29.7572 47.1632 30.081 48.6703 30.081 50.3643C30.081 51.9835 29.67 53.416 28.8479 54.6615C28.0258 55.8822 26.992 56.8537 25.7464 57.5762C26.2197 57.9498 26.6183 58.4979 26.9422 59.2203L29.7447 65.6475H21.3745L18.9082 60.0798C18.7339 59.7061 18.547 59.4445 18.3477 59.295C18.1484 59.1456 17.8371 59.0708 17.4136 59.0708H16.2552V65.6475H8.22125ZM16.2552 52.8679H19.2072C21.0008 52.8679 21.8976 52.0334 21.8976 50.3643C21.8976 48.6703 21.0631 47.8233 19.394 47.8233H16.2552V52.8679ZM43.043 66.0211C40.3526 66.0211 38.0732 65.6101 36.2048 64.788C34.3365 63.9659 32.9041 62.6456 31.9076 60.8271C30.9361 59.0086 30.4503 56.6171 30.4503 53.6526C30.4503 50.6383 30.9361 48.2219 31.9076 46.4034C32.9041 44.5849 34.3365 43.2645 36.2048 42.4425C38.0732 41.6204 40.3526 41.2094 43.043 41.2094C45.7335 41.2094 48.0129 41.6204 49.8812 42.4425C51.7496 43.2645 53.1695 44.5849 54.1411 46.4034C55.1375 48.2219 55.6358 50.6383 55.6358 53.6526C55.6358 56.6171 55.1375 59.0086 54.1411 60.8271C53.1695 62.6456 51.7496 63.9659 49.8812 64.788C48.0129 65.6101 45.7335 66.0211 43.043 66.0211ZM43.043 59.2203C44.5875 59.2203 45.6961 58.7844 46.3687 57.9125C47.0662 57.0406 47.415 55.6206 47.415 53.6526C47.415 51.585 47.0662 50.1401 46.3687 49.318C45.6961 48.471 44.5875 48.0475 43.043 48.0475C41.4736 48.0475 40.3401 48.471 39.6426 49.318C38.97 50.1401 38.6337 51.585 38.6337 53.6526C38.6337 55.6206 38.97 57.0406 39.6426 57.9125C40.3401 58.7844 41.4736 59.2203 43.043 59.2203ZM69.1577 66.0211C66.4673 66.0211 64.1879 65.6101 62.3195 64.788C60.4512 63.9659 59.0187 62.6456 58.0223 60.8271C57.0507 59.0086 56.565 56.6171 56.565 53.6526C56.565 50.6383 57.0507 48.2219 58.0223 46.4034C59.0187 44.5849 60.4512 43.2645 62.3195 42.4425C64.1879 41.6204 66.4673 41.2094 69.1577 41.2094C71.8481 41.2094 74.1275 41.6204 75.9959 42.4425C77.8642 43.2645 79.2842 44.5849 80.2557 46.4034C81.2522 48.2219 81.7504 50.6383 81.7504 53.6526C81.7504 56.6171 81.2522 59.0086 80.2557 60.8271C79.2842 62.6456 77.8642 63.9659 75.9959 64.788C74.1275 65.6101 71.8481 66.0211 69.1577 66.0211ZM69.1577 59.2203C70.7022 59.2203 71.8108 58.7844 72.4834 57.9125C73.1809 57.0406 73.5297 55.6206 73.5297 53.6526C73.5297 51.585 73.1809 50.1401 72.4834 49.318C71.8108 48.471 70.7022 48.0475 69.1577 48.0475C67.5883 48.0475 66.4548 48.471 65.7573 49.318C65.0847 50.1401 64.7484 51.585 64.7484 53.6526C64.7484 55.6206 65.0847 57.0406 65.7573 57.9125C66.4548 58.7844 67.5883 59.2203 69.1577 59.2203ZM83.427 65.6475V41.583H102.073V47.4497H91.4609V50.6259H100.653V56.642H91.4609V65.6475H83.427ZM103.01 65.6475V41.583H111.044V65.6475H103.01ZM113.47 65.6475V41.583H120.233L128.155 52.6811V41.583H136.189V65.6475H129.351L121.504 54.5868V65.6475H113.47ZM151.452 66.0211C147.043 66.0211 143.68 64.9749 141.363 62.8823C139.046 60.7897 137.888 57.7381 137.888 53.7273C137.888 49.6668 139.096 46.5653 141.513 44.4229C143.929 42.2805 147.429 41.2094 152.013 41.2094C153.557 41.2094 154.928 41.2965 156.123 41.4709C157.344 41.6453 158.515 41.9193 159.636 42.293V49.1312C158.49 48.7077 157.331 48.4212 156.161 48.2717C154.99 48.0974 153.794 48.0102 152.573 48.0102C150.531 48.0102 148.936 48.4461 147.79 49.318C146.644 50.1899 146.072 51.6597 146.072 53.7273C146.072 55.7203 146.52 57.1402 147.417 57.9872C148.338 58.8093 149.671 59.2203 151.415 59.2203C152.486 59.2203 153.433 59.0958 154.255 58.8466V56.3804H149.883V51.4853H160.944V63.7417C159.972 64.3645 158.702 64.9001 157.132 65.3485C155.563 65.7969 153.669 66.0211 151.452 66.0211ZM27.0169 96.4322L24.7375 94.1154C23.8905 94.7382 22.8193 95.2115 21.5239 95.5354C20.2286 95.8592 18.8709 96.0211 17.4509 96.0211C14.3868 96.0211 11.958 95.3983 10.1643 94.1528C8.37072 92.8823 7.47391 91.1883 7.47391 89.0708C7.47391 87.4516 7.87249 86.0815 8.66965 84.9605C9.46682 83.8394 10.6003 82.8679 12.0701 82.0458C11.3975 81.3732 10.8743 80.6882 10.5006 79.9906C10.127 79.2931 9.94014 78.4586 9.94014 77.487C9.94014 75.5938 10.6501 74.0742 12.0701 72.9282C13.49 71.7823 15.3833 71.2094 17.7499 71.2094C20.1165 71.2094 22.0346 71.7823 23.5044 72.9282C24.9742 74.0493 25.7091 75.5689 25.7091 77.487C25.7091 78.633 25.4724 79.6294 24.9991 80.4764C24.5258 81.3234 23.8158 82.1455 22.8692 82.9426L25.8959 86.0441C26.1201 85.6953 26.2322 85.222 26.2322 84.6242V84.0637H32.1362V84.9231C32.1362 85.9196 31.9618 86.9036 31.6131 87.8751C31.2892 88.8466 30.8657 89.6563 30.3426 90.304L31.9494 91.9481L27.0169 96.4322ZM17.7872 79.9159C18.2855 79.617 18.6591 79.318 18.9082 79.0191C19.1823 78.7202 19.3193 78.334 19.3193 77.8607C19.3193 77.4372 19.1947 77.0885 18.9456 76.8144C18.7214 76.5404 18.3602 76.4034 17.862 76.4034C17.3139 76.4034 16.9153 76.5529 16.6662 76.8518C16.442 77.1258 16.3299 77.4621 16.3299 77.8607C16.3299 78.3091 16.4545 78.6828 16.7036 78.9817C16.9527 79.2807 17.3139 79.592 17.7872 79.9159ZM17.4509 90.6403C18.4723 90.6403 19.2819 90.3787 19.8798 89.8556L16.8904 86.8288C16.3424 87.0281 15.9189 87.2897 15.6199 87.6135C15.321 87.9374 15.1715 88.3609 15.1715 88.884C15.1715 89.4321 15.3708 89.868 15.7694 90.1919C16.1929 90.4908 16.7534 90.6403 17.4509 90.6403ZM45.0077 96.0211C43.9614 96.0211 42.9525 95.9589 41.981 95.8343C41.0094 95.7097 40.0628 95.4855 39.1411 95.1617V88.5103C39.739 88.7595 40.3991 88.9463 41.1215 89.0708C41.8689 89.1705 42.6162 89.2203 43.3636 89.2203C44.6091 89.2203 45.481 88.9712 45.9793 88.473C46.5024 87.9747 46.764 87.1402 46.764 85.9694V71.583H54.7979V87.6135C54.7979 90.3289 53.9634 92.409 52.2943 93.8538C50.6253 95.2987 48.1964 96.0211 45.0077 96.0211ZM68.8891 96.0211C66.1987 96.0211 63.9193 95.6101 62.0509 94.788C60.1826 93.9659 58.7502 92.6456 57.7537 90.8271C56.7822 89.0086 56.2964 86.6171 56.2964 83.6526C56.2964 80.6383 56.7822 78.2219 57.7537 76.4034C58.7502 74.5849 60.1826 73.2645 62.0509 72.4425C63.9193 71.6204 66.1987 71.2094 68.8891 71.2094C71.5796 71.2094 73.8589 71.6204 75.7273 72.4425C77.5957 73.2645 79.0156 74.5849 79.9872 76.4034C80.9836 78.2219 81.4818 80.6383 81.4818 83.6526C81.4818 86.6171 80.9836 89.0086 79.9872 90.8271C79.0156 92.6456 77.5957 93.9659 75.7273 94.788C73.8589 95.6101 71.5796 96.0211 68.8891 96.0211ZM68.8891 89.2203C70.4336 89.2203 71.5422 88.7844 72.2148 87.9125C72.9123 87.0406 73.2611 85.6206 73.2611 83.6526C73.2611 81.585 72.9123 80.1401 72.2148 79.318C71.5422 78.471 70.4336 78.0475 68.8891 78.0475C67.3197 78.0475 66.1862 78.471 65.4887 79.318C64.8161 80.1401 64.4798 81.585 64.4798 83.6526C64.4798 85.6206 64.8161 87.0406 65.4887 87.9125C66.1862 88.7844 67.3197 89.2203 68.8891 89.2203ZM83.1584 95.6475V71.583H91.1923V95.6475H83.1584ZM93.6183 95.6475V71.583H100.382L108.304 82.6811V71.583H116.337V95.6475H109.499L101.652 84.5868V95.6475H93.6183ZM118.784 95.6475V71.583H137.505V77.5244H126.818V80.5885H136.123V86.6793H126.818V89.7061H137.505V95.6475H118.784ZM138.987 95.6475V71.583H151.991C154.009 71.583 155.665 71.9692 156.961 72.7414C158.281 73.4888 159.253 74.5226 159.875 75.8429C160.523 77.1632 160.847 78.6703 160.847 80.3643C160.847 81.9835 160.436 83.416 159.614 84.6615C158.792 85.8822 157.758 86.8537 156.512 87.5762C156.986 87.9498 157.384 88.4979 157.708 89.2203L160.511 95.6475H152.14L149.674 90.0798C149.5 89.7061 149.313 89.4445 149.114 89.295C148.914 89.1456 148.603 89.0708 148.18 89.0708H147.021V95.6475H138.987ZM147.021 82.8679H149.973C151.767 82.8679 152.664 82.0334 152.664 80.3643C152.664 78.6703 151.829 77.8233 150.16 77.8233H147.021V82.8679ZM167.988 95.6475V86.8662L159.319 71.583H167.689L172.024 79.9533L176.358 71.583H184.728L176.022 86.8662V95.6475H167.988Z" fill="#EFEFDC"/>
<path d="M7.77284 113.293V103.667H8.87891L14.3644 111.41V103.667H15.59V113.293H14.469L8.99848 105.565V113.293H7.77284ZM33.3332 113.442C31.8286 113.442 30.7126 113.049 29.9851 112.262C29.2577 111.464 28.894 110.204 28.894 108.48C28.894 106.756 29.2577 105.501 29.9851 104.713C30.7126 103.916 31.8286 103.518 33.3332 103.518C34.8479 103.518 35.9639 103.916 36.6813 104.713C37.4088 105.501 37.7725 106.756 37.7725 108.48C37.7725 110.204 37.4088 111.464 36.6813 112.262C35.9639 113.049 34.8479 113.442 33.3332 113.442ZM33.3332 112.396C34.0607 112.396 34.6585 112.272 35.1269 112.022C35.6052 111.773 35.9589 111.365 36.1881 110.797C36.4272 110.219 36.5468 109.447 36.5468 108.48C36.5468 107.514 36.4272 106.746 36.1881 106.178C35.9589 105.6 35.6052 105.187 35.1269 104.938C34.6585 104.689 34.0607 104.564 33.3332 104.564C32.6058 104.564 32.003 104.689 31.5247 104.938C31.0563 105.187 30.7026 105.6 30.4634 106.178C30.2343 106.746 30.1197 107.514 30.1197 108.48C30.1197 109.447 30.2343 110.219 30.4634 110.797C30.7026 111.365 31.0563 111.773 31.5247 112.022C32.003 112.272 32.6058 112.396 33.3332 112.396ZM51.0802 113.293V103.667H55.3101C56.3465 103.667 57.0988 103.936 57.5671 104.474C58.0454 105.012 58.2846 105.74 58.2846 106.657C58.2846 107.364 58.1102 107.952 57.7614 108.42C57.4226 108.889 56.9144 109.203 56.2368 109.362C56.4361 109.482 56.5856 109.621 56.6852 109.78C56.7949 109.93 56.9045 110.134 57.0141 110.393L58.2696 113.293H57.0141L55.7884 110.498C55.6589 110.199 55.4995 109.985 55.3101 109.855C55.1308 109.726 54.8069 109.661 54.3386 109.661H52.3058V113.293H51.0802ZM52.3058 108.704H54.9664C55.6141 108.704 56.1222 108.545 56.4909 108.226C56.8696 107.897 57.0589 107.374 57.0589 106.657C57.0589 105.311 56.4162 104.639 55.1308 104.639H52.3058V108.704ZM74.1815 113.293V104.639H70.9828V103.667H78.6057V104.639H75.4071V113.293H74.1815ZM91.6142 113.293V103.667H92.8398V108.002H97.9217V103.667H99.1474V113.293H97.9217V108.958H92.8398V113.293H91.6142ZM114.685 113.293L112.443 103.667H113.654L115.463 111.589L117.54 104.728V103.667H118.542L120.784 111.589L122.622 103.667H123.818L121.591 113.293H120.291L118.198 105.969L116.001 113.293H114.685ZM137.126 113.293V103.667H143.627V104.639H138.351V108.002H143.089V108.958H138.351V112.336H143.627V113.293H137.126ZM159.298 113.442C158.102 113.442 157.136 113.293 156.398 112.994V111.903C156.817 112.062 157.26 112.187 157.729 112.277C158.207 112.356 158.695 112.396 159.193 112.396C160.05 112.396 160.693 112.282 161.121 112.052C161.55 111.813 161.764 111.39 161.764 110.782C161.764 110.403 161.675 110.104 161.495 109.885C161.326 109.656 161.042 109.467 160.643 109.317C160.245 109.158 159.711 108.998 159.044 108.839C157.988 108.58 157.245 108.246 156.817 107.837C156.388 107.419 156.174 106.861 156.174 106.163C156.174 105.346 156.468 104.704 157.056 104.235C157.644 103.757 158.541 103.518 159.746 103.518C160.304 103.518 160.823 103.558 161.301 103.637C161.779 103.717 162.148 103.802 162.407 103.891V104.968C162.048 104.838 161.66 104.738 161.241 104.669C160.823 104.599 160.389 104.564 159.941 104.564C159.124 104.564 158.496 104.684 158.057 104.923C157.619 105.162 157.4 105.575 157.4 106.163C157.4 106.492 157.474 106.761 157.624 106.97C157.783 107.17 158.047 107.344 158.416 107.494C158.785 107.633 159.298 107.783 159.956 107.942C160.743 108.131 161.356 108.361 161.794 108.63C162.233 108.889 162.541 109.198 162.721 109.556C162.9 109.915 162.99 110.324 162.99 110.782C162.99 111.629 162.681 112.287 162.063 112.755C161.445 113.213 160.524 113.442 159.298 113.442ZM178.29 113.293V104.639H175.091V103.667H182.714V104.639H179.515V113.293H178.29Z" fill="#EFEFDC"/>
<path d="M238.886 45.7578V73.6303H211.014V45.7578H238.886ZM211.014 81.6303H238.886V109.503H211.014V81.6303ZM246.886 109.503V81.6303H274.759V109.503H246.886ZM246.886 73.6303V45.7578H274.759V73.6303H246.886Z" stroke="#EFEFDC" stroke-width="8"/>
<path d="M143.49 0L286.98 26.1673L286.979 29.8937H0L0.000493637 26.1673L143.49 0Z" fill="#EFEFDC"/>
</svg>
